<svg width="33" height="32" viewBox="0 0 33 32" fill="none" xmlns="http://www.w3.org/2000/svg">
<path d="M6.97415 3.25C5.14825 3.25 3.7972 4.8481 3.85767 6.58125C3.9157 8.24634 3.84031 10.4028 3.2974 12.1615C2.75286 13.9253 1.83191 15.0425 0.327637 15.186V16.8055C1.83191 16.949 2.75286 18.0663 3.2974 19.8301C3.84031 21.5887 3.9157 23.7452 3.85767 25.4103C3.7972 27.1432 5.14825 28.7415 6.97442 28.7415H25.6836C27.5095 28.7415 28.8602 27.1434 28.7998 25.4103C28.7417 23.7452 28.8171 21.5887 29.36 19.8301C29.9049 18.0663 30.8234 16.949 32.3276 16.8055V15.186C30.8234 15.0425 29.9049 13.9253 29.36 12.1615C28.8171 10.4031 28.7417 8.24634 28.7998 6.58125C28.8602 4.84837 27.5095 3.25 25.6836 3.25H6.97387H6.97415ZM22.0226 18.9417C22.0226 21.3281 20.2425 22.7754 17.2885 22.7754H12.2598C11.9603 22.7754 11.7175 22.5326 11.7175 22.2331V9.75847C11.7175 9.45893 11.9603 9.2161 12.2598 9.2161H17.2597C19.7229 9.2161 21.3394 10.5503 21.3394 12.5989C21.3394 14.0367 20.252 15.324 18.8665 15.5494V15.6245C20.7526 15.8314 22.0226 17.1375 22.0226 18.9417ZM16.7401 10.9354H13.8729V14.9853H16.2878C18.1546 14.9853 19.184 14.2336 19.184 12.8899C19.184 11.6307 18.2989 10.9354 16.7401 10.9354ZM13.8729 16.5924V21.0556H16.8456C18.7892 21.0556 19.8189 20.2756 19.8189 18.8099C19.8189 17.3438 18.7605 16.5921 16.7206 16.5921H13.8729V16.5924Z" fill="#7E13F8"/>
<path d="M22.0224 18.9419C22.0224 21.3283 20.2423 22.7756 17.2883 22.7756H12.2597C11.9601 22.7756 11.7173 22.5328 11.7173 22.2333V9.75868C11.7173 9.45914 11.9601 9.21631 12.2597 9.21631H17.2595C19.7227 9.21631 21.3393 10.5505 21.3393 12.5991C21.3393 14.0369 20.2518 15.3242 18.8663 15.5496V15.6247C20.7524 15.8316 22.0224 17.1377 22.0224 18.9419ZM16.7399 10.9356H13.8727V14.9855H16.2876C18.1544 14.9855 19.1839 14.2338 19.1839 12.8901C19.1839 11.631 18.2987 10.9356 16.7399 10.9356ZM13.8727 16.5926V21.0558H16.8454C18.789 21.0558 19.8187 20.2758 19.8187 18.8101C19.8187 17.344 18.7603 16.5923 16.7204 16.5923H13.8727V16.5926Z" fill="white"/>
</svg>
