<svg width="22" height="32" viewBox="0 0 22 32" fill="none" xmlns="http://www.w3.org/2000/svg">
<g clip-path="url(#clip0_7_866)">
<g clip-path="url(#clip1_7_866)">
<g clip-path="url(#clip2_7_866)">
<path d="M5.33357 31.9943C8.27652 31.9943 10.665 29.6058 10.665 26.6629V21.3315H5.33357C2.39062 21.3315 0.00213623 23.7199 0.00213623 26.6629C0.00213623 29.6058 2.39062 31.9943 5.33357 31.9943Z" fill="#0ACF83"/>
<path d="M0.00213623 16C0.00213623 13.0571 2.39062 10.6686 5.33357 10.6686H10.665V21.3314H5.33357C2.39062 21.3314 0.00213623 18.943 0.00213623 16Z" fill="#A259FF"/>
<path d="M0.00213623 5.33714C0.00213623 2.39419 2.39062 0.00570679 5.33357 0.00570679H10.665V10.6686H5.33357C2.39062 10.6686 0.00213623 8.28009 0.00213623 5.33714Z" fill="#F24E1E"/>
<path d="M10.665 0.00570679H15.9964C18.9394 0.00570679 21.3279 2.39419 21.3279 5.33714C21.3279 8.28009 18.9394 10.6686 15.9964 10.6686H10.665V0.00570679Z" fill="#FF7262"/>
<path d="M21.3279 16C21.3279 18.943 18.9394 21.3314 15.9964 21.3314C13.0535 21.3314 10.665 18.943 10.665 16C10.665 13.0571 13.0535 10.6686 15.9964 10.6686C18.9394 10.6686 21.3279 13.0571 21.3279 16Z" fill="#1ABCFE"/>
</g>
</g>
</g>
<defs>
<clipPath id="clip0_7_866">
<rect width="21.33" height="32" fill="white"/>
</clipPath>
<clipPath id="clip1_7_866">
<rect width="21.33" height="32" fill="white"/>
</clipPath>
<clipPath id="clip2_7_866">
<rect width="21.33" height="31.9886" fill="white" transform="translate(0 0.00570679)"/>
</clipPath>
</defs>
</svg>
