<svg width="26" height="40" viewBox="0 0 26 40" fill="none" xmlns="http://www.w3.org/2000/svg">
<path fill-rule="evenodd" clip-rule="evenodd" d="M0.00268555 36.5319V11.0776C0.00268555 11.9801 0.357126 12.8198 0.907872 13.4169C1.38773 13.935 1.79125 14.3058 2.20022 14.7147L7.33415 19.8487V36.5319C7.33415 38.4405 5.77462 40 3.86609 40H3.47075C1.56222 40 0.00268555 38.4405 0.00268555 36.5319Z" fill="#2B71AE"/>
<path fill-rule="evenodd" clip-rule="evenodd" d="M18.0737 20.2195V3.53624C18.0737 1.62772 19.6333 0.0681763 21.5418 0.0681763H21.9371C23.8457 0.0681763 25.4052 1.62772 25.4052 3.53624L25.397 29.2141C25.397 28.0663 25.078 27.2238 24.3937 26.5394L18.0737 20.2195Z" fill="#E42221"/>
<path d="M3.66978 7.3342C5.69507 7.3342 7.33688 5.69238 7.33688 3.6671C7.33688 1.64182 5.69507 0 3.66978 0C1.6445 0 0.00268555 1.64182 0.00268555 3.6671C0.00268555 5.69238 1.6445 7.3342 3.66978 7.3342Z" fill="#008F5C"/>
<path fill-rule="evenodd" clip-rule="evenodd" d="M18.1883 36.0275L21.4682 32.843C21.6182 32.6985 21.8608 32.6985 22.0108 32.843L25.2907 36.0275C25.4407 36.172 25.4407 36.4092 25.2907 36.5538L21.7381 40L18.1883 36.5538C18.0383 36.4092 18.0383 36.172 18.1883 36.0275Z" fill="#F18F1E"/>
<path fill-rule="evenodd" clip-rule="evenodd" d="M24.3937 26.5394L6.19726 8.34298C4.84766 6.99338 2.64195 6.99338 1.29235 8.34298L1.01152 8.62381C0.335355 9.29997 0 10.1888 0 11.0804C0 11.1349 0.00272647 11.1867 0.00272647 11.2412V11.2439C0.00272647 11.2685 0.00545293 11.293 0.0081794 11.3176V11.3312C0.0109059 11.353 0.0109059 11.3748 0.0136323 11.3966L0.0163588 11.4293L0.0190853 11.4648C0.0790675 12.0019 0.264467 12.509 0.534388 12.9398L0.558926 12.978L0.567105 12.9916C0.692523 13.1825 0.839752 13.3624 1.00607 13.5314L2.17299 14.6984L2.19208 14.7175L7.32602 19.8514L19.1998 31.7252C20.5494 33.0748 22.7551 33.0748 24.1047 31.7252L24.3855 31.4443C25.0044 30.8254 25.3398 30.0266 25.3889 29.2114C25.3889 28.467 25.2525 27.8509 24.9717 27.3246C24.819 27.0438 24.6227 26.7794 24.3855 26.5394H24.3937ZM25.397 29.2114C25.4052 29.0669 25.4052 28.9196 25.397 28.7751V29.2114Z" fill="#F4E404"/>
</svg>
