<svg width="33" height="32" viewBox="0 0 33 32" fill="none" xmlns="http://www.w3.org/2000/svg">
<g clip-path="url(#clip0_7_879)">
<g clip-path="url(#clip1_7_879)">
<path d="M16.95 30L16.199 29.751C16.199 29.751 16.299 25.951 14.924 25.684C14.024 24.636 15.057 -19.057 18.347 25.535C17.7228 25.8516 17.2452 26.3973 17.014 27.058C16.8901 28.0337 16.8687 29.0198 16.95 30Z" fill="url(#paint0_linear_7_879)"/>
<path d="M17.356 26.329C19.3556 24.8238 20.8869 22.782 21.772 20.4409C22.6571 18.0998 22.8596 15.5556 22.356 13.104C20.886 6.619 17.405 4.487 17.03 3.673C16.7065 3.16613 16.4303 2.63053 16.205 2.073L16.482 20.142C16.482 20.142 15.908 25.664 17.356 26.329Z" fill="url(#paint1_linear_7_879)"/>
<path d="M15.817 26.569C15.817 26.569 9.696 22.4 10.05 15.025C10.083 12.8016 10.5928 10.6113 11.5449 8.60182C12.497 6.59237 13.8693 4.81065 15.569 3.377C15.7676 3.20825 15.9254 2.99668 16.0306 2.75818C16.1357 2.51969 16.1854 2.26047 16.176 2C16.557 2.82 16.495 14.243 16.535 15.579C16.69 20.776 16.246 25.588 15.817 26.569Z" fill="url(#paint2_linear_7_879)"/>
</g>
</g>
<defs>
<linearGradient id="paint0_linear_7_879" x1="11.9017" y1="16.2523" x2="20.5333" y2="19.1814" gradientUnits="userSpaceOnUse">
<stop offset="0.231" stop-color="#999875"/>
<stop offset="0.563" stop-color="#9B9977"/>
<stop offset="0.683" stop-color="#A09F7E"/>
<stop offset="0.768" stop-color="#A9A889"/>
<stop offset="0.837" stop-color="#B7B69A"/>
<stop offset="0.896" stop-color="#C9C7B0"/>
<stop offset="0.948" stop-color="#DEDDCB"/>
<stop offset="0.994" stop-color="#F8F6EB"/>
<stop offset="1" stop-color="#FBF9EF"/>
</linearGradient>
<linearGradient id="paint1_linear_7_879" x1="15.067" y1="1.94388" x2="18.883" y2="25.7728" gradientUnits="userSpaceOnUse">
<stop stop-color="#48A547"/>
<stop offset="1" stop-color="#3F9143"/>
</linearGradient>
<linearGradient id="paint2_linear_7_879" x1="9.52347" y1="15.755" x2="19.7641" y2="12.3254" gradientUnits="userSpaceOnUse">
<stop stop-color="#41A247"/>
<stop offset="0.352" stop-color="#4BA74B"/>
<stop offset="0.956" stop-color="#67B554"/>
<stop offset="1" stop-color="#69B655"/>
</linearGradient>
<clipPath id="clip0_7_879">
<rect width="32" height="32" fill="white" transform="translate(0.330017)"/>
</clipPath>
<clipPath id="clip1_7_879">
<rect width="32" height="32" fill="white" transform="translate(0.330017)"/>
</clipPath>
</defs>
</svg>
