<svg width="33" height="32" viewBox="0 0 33 32" fill="none" xmlns="http://www.w3.org/2000/svg">
<rect x="0.35791" width="32" height="32" rx="2" fill="white"/>
<path d="M15.31 0.00861131C15.2412 0.0148665 15.0222 0.0367597 14.8252 0.0523976C10.2801 0.462113 6.02282 2.91415 3.32643 6.6829C1.82497 8.77839 0.864655 11.1554 0.501801 13.6731C0.37355 14.5519 0.35791 14.8115 0.35791 16.0031C0.35791 17.1947 0.37355 17.4543 0.501801 18.3332C1.3714 24.3413 5.64745 29.3892 11.4469 31.2595C12.4854 31.5942 13.5802 31.8225 14.8252 31.9601C15.31 32.0133 17.4058 32.0133 17.8907 31.9601C20.0396 31.7224 21.8602 31.1907 23.6557 30.2743C23.9309 30.1336 23.9841 30.0961 23.9466 30.0648C23.9215 30.046 22.7485 28.4729 21.3409 26.5713L18.7822 23.1153L15.5759 18.3707C13.8117 15.7623 12.3603 13.6293 12.3477 13.6293C12.3352 13.6262 12.3227 15.7342 12.3165 18.3082C12.3071 22.815 12.304 22.9964 12.2476 23.1028C12.1663 23.256 12.1038 23.3186 11.9724 23.3874C11.8723 23.4374 11.7847 23.4468 11.3124 23.4468H10.7712L10.6273 23.3561C10.5335 23.2967 10.4647 23.2185 10.4177 23.1278L10.352 22.9871L10.3583 16.7162L10.3677 10.4423L10.4647 10.3203C10.5147 10.2546 10.6211 10.1702 10.6961 10.1295C10.8244 10.067 10.8744 10.0607 11.4156 10.0607C12.0537 10.0607 12.1601 10.0857 12.3258 10.2671C12.3728 10.3172 14.1088 12.9318 16.1859 16.0813C18.2629 19.2308 21.1032 23.5313 22.4983 25.6424L25.032 29.4799L25.1603 29.3955C26.2957 28.6574 27.4969 27.6065 28.4478 26.5119C30.4717 24.188 31.7761 21.3544 32.214 18.3332C32.3423 17.4543 32.3579 17.1947 32.3579 16.0031C32.3579 14.8115 32.3423 14.5519 32.214 13.6731C31.3444 7.66496 27.0684 2.61703 21.269 0.746724C20.2461 0.415199 19.1575 0.186884 17.9376 0.0492701C17.6373 0.0179941 15.5696 -0.0164094 15.31 0.00861131ZM21.8602 9.68539C22.0103 9.76045 22.1323 9.90432 22.1761 10.0544C22.2011 10.1358 22.2074 11.8747 22.2011 15.7936L22.1917 21.417L21.2001 19.897L20.2054 18.377V14.2892C20.2054 11.6464 20.2179 10.1608 20.2367 10.0889C20.2867 9.9137 20.3962 9.77609 20.5464 9.69477C20.6746 9.62909 20.7215 9.62284 21.2127 9.62284C21.6756 9.62284 21.7569 9.62909 21.8602 9.68539Z" fill="black"/>
</svg>
