<svg width="33" height="32" viewBox="0 0 33 32" fill="none" xmlns="http://www.w3.org/2000/svg">
<g clip-path="url(#clip0_88_51)">
<ellipse cx="16.3276" cy="15.9653" rx="15.625" ry="8.21533" fill="url(#paint0_radial_88_51)"/>
<ellipse cx="16.3276" cy="15.9653" rx="15.0146" ry="7.60498" fill="#6181B6"/>
<path fill-rule="evenodd" clip-rule="evenodd" d="M19.3672 18.4312L20.1118 14.5981C20.2827 13.7314 20.1362 13.0845 19.6968 12.6816C19.2695 12.291 18.5371 12.0957 17.4629 12.0957H16.169L16.5352 10.1914C16.5474 10.1182 16.5352 10.0449 16.4863 9.98389C16.4375 9.92285 16.3765 9.89844 16.3032 9.89844H14.521C14.3989 9.89844 14.3013 9.98389 14.2769 10.0938L13.4834 14.1587C13.4102 13.6948 13.2393 13.3042 12.9463 12.9868C12.4214 12.3887 11.6035 12.0835 10.4927 12.0835H7.06251C6.94044 12.0835 6.84278 12.1689 6.81837 12.2788L5.21925 20.5308C5.20704 20.604 5.21925 20.6772 5.26807 20.7383C5.3169 20.7993 5.37794 20.8237 5.45118 20.8237H7.24561C7.36768 20.8237 7.46534 20.7383 7.48975 20.6284L7.88038 18.6387H9.21095C9.90675 18.6387 10.5049 18.5654 10.9566 18.4189C11.4326 18.2603 11.8599 18.0039 12.2383 17.6499C12.5435 17.3691 12.7998 17.0518 12.9951 16.71L12.6777 18.3579C12.6655 18.4312 12.6777 18.5044 12.7266 18.5654C12.7754 18.6265 12.8364 18.6509 12.9097 18.6509H14.6919C14.814 18.6509 14.9116 18.5654 14.936 18.4556L15.8149 13.939H17.0357C17.5606 13.939 17.707 14.0366 17.7559 14.0854C17.7925 14.1221 17.8657 14.2686 17.7803 14.7202L17.0723 18.3701C17.0601 18.4434 17.0723 18.5166 17.1211 18.5776C17.1699 18.6387 17.231 18.6631 17.3042 18.6631H19.1353C19.2451 18.6265 19.3428 18.541 19.3672 18.4312V18.4312ZM11.1152 15.2573C11.0054 15.8311 10.7979 16.2461 10.4927 16.478C10.1875 16.71 9.68702 16.832 9.02784 16.832H8.23438L8.80811 13.8779H9.8335C10.5903 13.8779 10.8955 14.0366 11.0176 14.1709C11.1763 14.3662 11.2129 14.7446 11.1152 15.2573V15.2573Z" fill="white"/>
<path fill-rule="evenodd" clip-rule="evenodd" d="M26.9844 12.9868C26.4595 12.3887 25.6416 12.0835 24.5308 12.0835H21.0762C20.9541 12.0835 20.8565 12.1689 20.832 12.2788L19.2329 20.5186C19.2207 20.5918 19.2329 20.665 19.2817 20.7261C19.3306 20.7871 19.3916 20.8115 19.4649 20.8115H21.2593C21.3814 20.8115 21.479 20.7261 21.5034 20.6162L21.8941 18.6265H23.2246C23.9204 18.6265 24.5186 18.5532 24.9702 18.4067C25.4463 18.248 25.8735 17.9917 26.252 17.6377C26.5693 17.3447 26.8379 17.0151 27.0332 16.6611C27.2285 16.3071 27.375 15.9165 27.4605 15.4893C27.668 14.4272 27.5093 13.5972 26.9844 12.9868V12.9868ZM25.1167 15.2573C25.0068 15.8311 24.7993 16.2461 24.4941 16.478C24.189 16.71 23.6885 16.832 23.0293 16.832H22.2358L22.8096 13.8779H23.835C24.5918 13.8779 24.897 14.0366 25.019 14.1709C25.1899 14.3662 25.2266 14.7446 25.1167 15.2573V15.2573Z" fill="white"/>
<path fill-rule="evenodd" clip-rule="evenodd" d="M9.8335 13.6338C10.5171 13.6338 10.9687 13.7559 11.2007 14.0122C11.4326 14.2686 11.4814 14.6958 11.3594 15.3062C11.2373 15.9409 10.9932 16.4048 10.6392 16.6733C10.2852 16.9419 9.74805 17.0762 9.02783 17.0762H7.94141L8.61279 13.6338H9.8335V13.6338ZM5.46338 20.5674H7.25781L7.68506 18.3823H9.22314C9.90674 18.3823 10.4561 18.3091 10.8955 18.1626C11.335 18.0161 11.7256 17.7842 12.0918 17.4424C12.397 17.1616 12.6411 16.8564 12.8242 16.5269C13.0073 16.1973 13.1416 15.8311 13.2148 15.4282C13.4102 14.4517 13.2637 13.6948 12.7876 13.1455C12.3115 12.5962 11.5547 12.3276 10.5171 12.3276H7.0625L5.46338 20.5674V20.5674Z" fill="#000004"/>
<path fill-rule="evenodd" clip-rule="evenodd" d="M14.5332 10.1426H16.3154L15.8882 12.3276H17.4751C18.4761 12.3276 19.1597 12.4985 19.5381 12.8525C19.9165 13.2065 20.0264 13.7681 19.8799 14.5493L19.1353 18.3823H17.3286L18.0366 14.7324C18.1221 14.3174 18.0854 14.0366 17.9512 13.8901C17.8169 13.7437 17.5117 13.6582 17.0601 13.6582H15.6318L14.7163 18.3823H12.9341L14.5332 10.1426V10.1426Z" fill="#000004"/>
<path fill-rule="evenodd" clip-rule="evenodd" d="M23.835 13.6338C24.5186 13.6338 24.9702 13.7559 25.2021 14.0122C25.4341 14.2686 25.4829 14.6958 25.3608 15.3062C25.2388 15.9409 24.9946 16.4048 24.6406 16.6733C24.2866 16.9419 23.7495 17.0762 23.0293 17.0762H21.9429L22.6143 13.6338H23.835V13.6338ZM19.4648 20.5674H21.2593L21.6865 18.3823H23.2246C23.9082 18.3823 24.4575 18.3091 24.897 18.1626C25.3364 18.0161 25.7271 17.7842 26.0933 17.4424C26.3984 17.1616 26.6426 16.8564 26.8257 16.5269C27.0088 16.1973 27.1431 15.8311 27.2163 15.4282C27.4116 14.4517 27.2651 13.6948 26.7891 13.1455C26.313 12.5962 25.5562 12.3276 24.5186 12.3276H21.064L19.4648 20.5674V20.5674Z" fill="#000004"/>
</g>
<defs>
<radialGradient id="paint0_radial_88_51" cx="0" cy="0" r="1" gradientUnits="userSpaceOnUse" gradientTransform="translate(10.084 10.6391) scale(44.3184 23.3018)">
<stop stop-color="white"/>
<stop offset="0.5" stop-color="#4C6B97"/>
<stop offset="1" stop-color="#231F20"/>
</radialGradient>
<clipPath id="clip0_88_51">
<rect width="32" height="32" fill="white" transform="translate(0.327637)"/>
</clipPath>
</defs>
</svg>
