<svg width="33" height="32" viewBox="0 0 33 32" fill="none" xmlns="http://www.w3.org/2000/svg">
<g clip-path="url(#clip0_7_890)">
<g clip-path="url(#clip1_7_890)">
<path d="M24.157 8.243C25.0083 8.44104 25.7818 8.88679 26.38 9.524C26.7095 9.86887 26.9957 10.2527 27.232 10.667C27.243 10.712 25.698 11.75 24.761 12.329C24.727 12.352 24.592 12.205 24.439 11.979C24.2679 11.6848 24.0249 11.4387 23.7329 11.2639C23.4408 11.089 23.1092 10.991 22.769 10.979C21.692 10.905 20.998 11.469 21.003 12.412C20.9937 12.6437 21.0465 12.8736 21.156 13.078C21.393 13.568 21.833 13.862 23.215 14.461C25.759 15.556 26.851 16.278 27.525 17.304C27.906 17.9523 28.1406 18.676 28.2125 19.4245C28.2844 20.173 28.1917 20.9281 27.941 21.637C27.5965 22.4144 27.0502 23.0855 26.3587 23.5805C25.6673 24.0755 24.856 24.3764 24.009 24.452C23.1087 24.5553 22.199 24.5459 21.301 24.424C19.9255 24.198 18.6584 23.5378 17.685 22.54C17.3172 22.1259 17.0059 21.6649 16.759 21.169C16.8628 21.0918 16.9721 21.0223 17.086 20.961C17.244 20.871 17.842 20.527 18.406 20.2L19.43 19.6L19.644 19.912C20.0045 20.4274 20.4633 20.8665 20.994 21.204C21.5301 21.498 22.1372 21.6373 22.7478 21.6064C23.3584 21.5755 23.9484 21.3756 24.452 21.029C24.7118 20.7758 24.8742 20.4393 24.9108 20.0784C24.9473 19.7174 24.8557 19.3552 24.652 19.055C24.376 18.66 23.812 18.328 22.209 17.633C20.9521 17.2092 19.8072 16.5067 18.86 15.578C18.4089 15.064 18.0758 14.4574 17.884 13.801C17.7422 13.0532 17.7213 12.2875 17.822 11.533C18.0102 10.6648 18.4607 9.87552 19.1125 9.272C19.7644 8.66847 20.586 8.27993 21.466 8.159C22.3622 8.05192 23.2693 8.08024 24.157 8.243ZM15.814 9.726L15.825 11.18H11.195V24.328H7.93002V11.183H3.30002V9.755C3.28771 9.26597 3.30106 8.77663 3.34002 8.289C3.35702 8.266 6.17202 8.255 9.58502 8.261L15.796 8.278L15.814 9.726Z" fill="#007ACC"/>
</g>
</g>
<defs>
<clipPath id="clip0_7_890">
<rect width="32" height="32" fill="white" transform="translate(0.330017)"/>
</clipPath>
<clipPath id="clip1_7_890">
<rect width="32" height="32" fill="white" transform="translate(0.330017)"/>
</clipPath>
</defs>
</svg>
